<?xml version="1.0" standalone="no"?><!DOCTYPE svg PUBLIC "-//W3C//DTD SVG 1.1//EN" "http://www.w3.org/Graphics/SVG/1.1/DTD/svg11.dtd"><svg t="1745996907423" class="icon" viewBox="0 0 1024 1024" version="1.1" xmlns="http://www.w3.org/2000/svg" p-id="2479" xmlns:xlink="http://www.w3.org/1999/xlink" width="200" height="200"><path d="M585.130667 522.282667l374.485333 222.933333A42.581333 42.581333 0 0 0 1024 708.608V336a42.581333 42.581333 0 0 0-64.384-36.650667l-374.485333 222.933334z" fill="#0CCA8A" fill-opacity=".5" p-id="2480"></path><path d="M729.856 156.586667c47.018667 0 85.162667 38.144 85.162667 85.162666v540.16a85.162667 85.162667 0 0 1-85.162667 85.162667H85.162667A85.162667 85.162667 0 0 1 0 781.909333V241.749333C0 194.773333 38.144 156.586667 85.162667 156.586667h644.693333z m-394.666667 197.376a42.581333 42.581333 0 0 0-42.624 42.581333v230.570667a42.581333 42.581333 0 0 0 63.445334 37.12l204.928-115.285334a42.581333 42.581333 0 0 0 0-74.24L356.053333 359.466667a42.538667 42.538667 0 0 0-20.906666-5.504z" fill="#0CCA8A" p-id="2481"></path></svg>