<svg   width="24px"   height="24px"  viewBox="0 0 24 24" version="1.1" xmlns="http://www.w3.org/2000/svg" xmlns:xlink="http://www.w3.org/1999/xlink">
    <title>智能钛机器学习平台 TI-ONE-24px</title>
    <g id="智能钛机器学习平台-TI-ONE-24px" stroke="none" stroke-width="1" fill="none" fill-rule="evenodd">
        <g id="编组">
            <path d="M2,7 L2,20 L20.2676063,19.9999275 C20.6134261,19.4021661 21.2597476,19 22,19 C23.1045695,19 24,19.8954305 24,21 C24,22.1045695 23.1045695,23 22,23 C21.2601625,23 20.6141507,22.5982846 20.2681881,22.0010775 L0,22 L0,7 L2,7 Z M2,1 C2.74025244,1 3.38657394,1.40216612 3.73239368,1.99992752 L24,2 L24,17 L22,17 L22,4 L3.73181186,4.0010775 C3.38584934,4.59828461 2.7398375,5 2,5 C0.8954305,5 0,4.1045695 0,3 C0,1.8954305 0.8954305,1 2,1 Z M9,8 L9,10 L7,10 L7,16 L5,16 L5,10 L3,10 L3,8 L9,8 Z M12,8 L12,16 L10,16 L10,8 L12,8 Z M21,8 L21,10 L20.999,10 L20.999,14 L21,14 L21,16 L16,16 L16,8 L21,8 Z M19.019,10 L18,10 L18,14 L19.019,14 L19.019,10 Z M14,11 C14.5522847,11 15,11.4477153 15,12 C15,12.5522847 14.5522847,13 14,13 C13.4477153,13 13,12.5522847 13,12 C13,11.4477153 13.4477153,11 14,11 Z" id="形状结合" fill="#0052D9"></path>
            <rect id="矩形" x="0" y="0" width="24" height="24"></rect>
        </g>
    </g>
</svg>